<svg width="195" height="35" viewBox="0 0 195 35" fill="none" xmlns="http://www.w3.org/2000/svg">
<path d="M188.431 20.2169H187.964L187.932 20.6829C187.875 21.5213 187.691 22.1884 187.402 22.7045L187.402 22.7044L187.399 22.7102C187.125 23.215 186.732 23.5925 186.206 23.851C185.678 24.1105 184.976 24.2551 184.074 24.2551C183.326 24.2551 182.716 24.12 182.225 23.8716C181.745 23.6133 181.345 23.2338 181.025 22.7195C180.707 22.1827 180.462 21.5118 180.298 20.6955C180.134 19.8647 180.05 18.8915 180.05 17.7718V16.2082C180.05 15.0593 180.139 14.0737 180.312 13.2462C180.495 12.4102 180.763 11.7445 181.104 11.2329C181.445 10.7214 181.857 10.3532 182.339 10.1123C182.824 9.86988 183.407 9.74005 184.104 9.74005C185.07 9.74005 185.789 9.89569 186.298 10.167L186.298 10.1671L186.307 10.1716C186.826 10.4355 187.208 10.8256 187.464 11.3555L187.464 11.3555L187.466 11.3583C187.733 11.9007 187.899 12.5853 187.947 13.428L187.973 13.8997H188.446H193H193.55L193.498 13.3526C193.35 11.7878 192.904 10.3788 192.154 9.13472C191.406 7.87782 190.349 6.89459 188.997 6.18642C187.643 5.47133 186.004 5.12695 184.104 5.12695C182.657 5.12695 181.332 5.386 180.137 5.91341C178.948 6.4386 177.922 7.19045 177.064 8.16605L177.064 8.16604L177.062 8.16839C176.214 9.14567 175.566 10.3242 175.113 11.6942L175.113 11.6942L175.112 11.6964C174.668 13.06 174.45 14.5758 174.45 16.2385V17.7718C174.45 19.4334 174.663 20.9481 175.096 22.3106C175.528 23.6718 176.161 24.8463 176.999 25.8244L177.001 25.8267C177.849 26.8037 178.871 27.5563 180.061 28.0817L180.065 28.0832C181.26 28.6001 182.599 28.853 184.074 28.853C185.943 28.853 187.573 28.5189 188.943 27.8284C190.315 27.1424 191.393 26.1813 192.164 24.9448C192.941 23.7138 193.373 22.3107 193.469 20.7475L193.501 20.2169H192.97H188.431Z" fill="white" stroke="black"/>
<path d="M174.508 24.4972V23.9972H174.008H164.853V5.94592V5.44592H164.353H159.799H159.299V5.94592V28.0495V28.5495H159.799H162.381H162.881H164.353H164.853H174.008H174.508V28.0495V24.4972Z" fill="white" stroke="black"/>
<path d="M148.368 16.1182H144.814V10.0135H148.368C149.175 10.0135 149.783 10.1735 150.226 10.4527C150.693 10.7464 151.025 11.1271 151.236 11.5997C151.458 12.0986 151.572 12.6409 151.572 13.2328C151.572 13.814 151.459 14.3192 151.243 14.7586C151.04 15.1723 150.72 15.5029 150.26 15.7509C149.808 15.9843 149.187 16.1182 148.368 16.1182ZM144.814 28.0495V20.6706H148.368C150.151 20.6706 151.708 20.3788 153.023 19.7752C154.347 19.1726 155.377 18.307 156.092 17.1735C156.808 16.0392 157.156 14.7087 157.156 13.2025C157.156 11.7145 156.807 10.3736 156.098 9.19492C155.387 8.01352 154.361 7.09605 153.04 6.4403C151.72 5.77011 150.157 5.44592 148.368 5.44592H139.76H139.26V5.94592V28.0495V28.5495H139.76H144.314H144.814V28.0495Z" fill="white" stroke="black"/>
<path d="M126.636 28.2086L126.64 28.2102C127.721 28.6423 128.929 28.8532 130.257 28.8532C131.363 28.8532 132.366 28.7058 133.257 28.4014L133.257 28.4014L133.262 28.3996C134.133 28.0917 134.89 27.6941 135.526 27.2011C136.154 26.7218 136.664 26.2101 137.044 25.6628L137.272 25.3337L137.001 25.039L134.875 22.7315L134.479 22.3006L134.115 22.7602C133.666 23.3286 133.137 23.7475 132.526 24.0264C131.916 24.299 131.253 24.4375 130.53 24.4375C129.952 24.4375 129.451 24.3369 129.018 24.1466C128.589 23.9536 128.224 23.6841 127.918 23.3357C127.62 22.9846 127.382 22.562 127.209 22.0607C127.169 21.9396 127.134 21.8153 127.104 21.6878H136.997H137.497V21.1878V19.3661C137.497 18.1189 137.335 16.9738 137.003 15.9356C136.671 14.8863 136.175 13.9746 135.508 13.2096C134.849 12.4407 134.031 11.8501 133.064 11.4371C132.091 11.0216 130.99 10.8201 129.771 10.8201C128.519 10.8201 127.378 11.0376 126.355 11.4833C125.337 11.9167 124.466 12.5421 123.748 13.358L123.748 13.358L123.746 13.3609C123.043 14.1724 122.506 15.1254 122.133 16.2131C121.758 17.3044 121.574 18.4987 121.574 19.7911V20.3984C121.574 21.5498 121.772 22.6433 122.169 23.6751L122.17 23.6768C122.568 24.698 123.139 25.5993 123.884 26.3765L123.884 26.3765L123.887 26.3791C124.647 27.1607 125.566 27.7697 126.636 28.2086ZM132.198 17.773H127.159C127.28 17.2476 127.448 16.8 127.656 16.4246C127.88 16.0373 128.161 15.7476 128.498 15.5423C128.821 15.3453 129.223 15.2358 129.726 15.2358C130.336 15.2358 130.79 15.3633 131.123 15.5799C131.474 15.8089 131.735 16.1167 131.909 16.5151L131.909 16.5151L131.914 16.5266C132.082 16.8852 132.18 17.2981 132.198 17.773Z" fill="white" stroke="black"/>
<path d="M116.274 12.2405L116.227 11.5878L116.193 11.1237H115.728H111.614H111.114V11.6237V28.0496V28.5496H111.614H115.986H116.486V28.0496V17.3266C116.6 17.0963 116.74 16.8972 116.905 16.726C117.149 16.4829 117.454 16.2945 117.833 16.1655L117.833 16.1655L117.839 16.1634C118.228 16.025 118.705 15.9493 119.281 15.9493C119.503 15.9493 119.754 15.9633 120.034 15.9922L120.043 15.9932L120.052 15.9938C120.348 16.0135 120.593 16.0377 120.789 16.0658L121.349 16.1458L121.359 15.5802L121.435 11.5268L121.442 11.1734L121.111 11.0493C120.901 10.9706 120.654 10.9187 120.382 10.8856C120.108 10.8421 119.837 10.8201 119.569 10.8201C118.717 10.8201 117.942 11.0229 117.259 11.4398C116.899 11.6598 116.57 11.9275 116.274 12.2405Z" fill="white" stroke="black"/>
<path d="M108.884 23.4893L108.885 23.4878C109.248 22.409 109.427 21.2464 109.427 20.0037V19.6849C109.427 18.4328 109.248 17.2697 108.885 16.1998C108.521 15.1195 107.983 14.1746 107.267 13.3721C106.558 12.5649 105.682 11.9409 104.647 11.4987C103.603 11.0422 102.425 10.8201 101.124 10.8201C99.823 10.8201 98.6497 11.0422 97.6144 11.4995C96.5893 11.9422 95.7187 12.5667 95.0099 13.3736C94.3051 14.176 93.7725 15.1205 93.409 16.2C93.0454 17.2698 92.8665 18.4329 92.8665 19.6849V20.0037C92.8665 21.2464 93.0456 22.409 93.4088 23.4878L93.4093 23.4893C93.7728 24.5585 94.3049 25.5015 95.0078 26.3125L95.0077 26.3125L95.0124 26.3178C95.731 27.1234 96.6063 27.7474 97.6316 28.1899L97.6334 28.1906C98.6771 28.6364 99.8539 28.8532 101.154 28.8532C102.455 28.8532 103.627 28.6364 104.662 28.1899C105.688 27.7471 106.559 27.1224 107.268 26.315C107.982 25.5038 108.52 24.5599 108.884 23.4893ZM99.8117 24.1257L99.5604 24.558L99.8117 24.1257C99.4526 23.9169 99.1585 23.6294 98.9273 23.2546C98.6967 22.8539 98.5226 22.3818 98.4108 21.832C98.2968 21.2716 98.2387 20.6626 98.2387 20.0037V19.6849C98.2387 19.0471 98.2966 18.4539 98.4105 17.9037L98.4108 17.9021C98.523 17.3503 98.698 16.8768 98.9298 16.4752C99.1646 16.0757 99.4571 15.7737 99.8061 15.5571C100.148 15.3511 100.58 15.2358 101.124 15.2358C101.67 15.2358 102.102 15.3516 102.444 15.5584C102.802 15.7748 103.092 16.0748 103.315 16.4696L103.315 16.4697L103.322 16.4808C103.562 16.881 103.741 17.3525 103.852 17.9021L103.852 17.9021L103.855 17.9118C103.977 18.4592 104.04 19.0497 104.04 19.6849V20.0037C104.04 20.6601 103.977 21.2664 103.854 21.8241L103.854 21.8241L103.852 21.832C103.74 22.3834 103.565 22.8567 103.334 23.2582C103.113 23.631 102.825 23.9173 102.467 24.1257C102.122 24.326 101.692 24.4375 101.154 24.4375C100.594 24.4375 100.154 24.3247 99.8117 24.1257Z" fill="white" stroke="black"/>
<path d="M86.6136 23.4864L86.6117 23.4894C86.4304 23.7811 86.178 24.0132 85.8412 24.1866C85.5057 24.3494 85.1084 24.4375 84.6378 24.4375C84.0545 24.4375 83.6318 24.3188 83.3314 24.1236C83.0055 23.9117 82.7449 23.6217 82.5498 23.2413C82.355 22.8417 82.2171 22.3743 82.1424 21.833C82.0648 21.2702 82.0256 20.6809 82.0256 20.0644V19.6241C82.0256 19.009 82.0646 18.4263 82.1417 17.8755C82.2265 17.3313 82.3701 16.8608 82.5669 16.4584L82.5669 16.4584L82.5688 16.4545C82.7546 16.066 83.009 15.7745 83.3314 15.5649L83.3315 15.565L83.3387 15.5602C83.639 15.3574 84.0546 15.2358 84.6226 15.2358C85.1424 15.2358 85.5404 15.354 85.8458 15.5602L85.8517 15.5642L85.8577 15.568C86.1929 15.7805 86.4433 16.0629 86.6155 16.4238L86.6154 16.4238L86.6195 16.432C86.8057 16.8044 86.9071 17.226 86.916 17.7054L86.9251 18.1961H87.4159H91.53H92.0339L92.0299 17.6923C92.0192 16.312 91.7029 15.0917 91.0614 14.0508C90.4352 13.0082 89.5652 12.2058 88.462 11.6485C87.3679 11.0907 86.1086 10.8201 84.6985 10.8201C83.378 10.8201 82.202 11.0419 81.1832 11.502C80.1765 11.9567 79.3299 12.5939 78.6516 13.414C77.9787 14.2175 77.4783 15.1575 77.1467 16.2267C76.8165 17.2817 76.6535 18.4153 76.6535 19.6241V20.0644C76.6535 21.2639 76.8167 22.3971 77.1465 23.4612L77.1465 23.4612L77.147 23.4625C77.4788 24.5222 77.9792 25.461 78.6506 26.2732L78.6506 26.2732L78.6527 26.2757C79.3312 27.0856 80.1775 27.7171 81.1832 28.1713L81.185 28.1721C82.2133 28.6316 83.3987 28.8532 84.7289 28.8532C86.0624 28.8532 87.2832 28.5861 88.3816 28.0423L88.3816 28.0423L88.3851 28.0405C89.478 27.4887 90.3592 26.7306 91.017 25.7657L91.0185 25.7635C91.6841 24.7763 92.019 23.6521 92.0299 22.4067L92.0344 21.9023H91.53H87.4159H86.9256L86.916 22.3925C86.9074 22.83 86.8015 23.1889 86.6136 23.4864Z" fill="white" stroke="black"/>
<path d="M74.7389 4.73108V4.23108H74.2389H69.8516H69.3516V4.73108V28.0492V28.5492H69.8516H74.2389H74.7389V28.0492V4.73108Z" fill="white" stroke="black"/>
<path d="M67.7402 24.4972V23.9972H67.2402H57.4626V18.9096H65.7069H66.2069V18.4096V14.9483V14.4483H65.7069H57.4626V10.0135H67.225H67.725V9.51347V5.94592V5.44592H67.225H57.4626H56.9626H55.4749H54.9749H52.4083H51.9083V5.94592V28.0495V28.5495H52.4083H54.9749H55.4749H56.9626H57.4626H67.2402H67.7402V28.0495V24.4972Z" fill="white" stroke="black"/>
<path d="M15.1129 4.41977L15.1129 17.7888C15.1129 19.9538 16.8679 21.7088 19.0328 21.7088L35.2001 21.7088C37.365 21.7088 39.1201 19.9538 39.1201 17.7888L39.12 4.41976C39.12 2.25482 37.365 0.499776 35.2001 0.499776L19.0328 0.499777C16.8679 0.499777 15.1129 2.25481 15.1129 4.41977ZM19.0328 18.2215C18.7939 18.2215 18.6001 18.0278 18.6001 17.7888L18.6001 4.41977C18.6001 4.18078 18.7939 3.98704 19.0328 3.98704L35.2001 3.98704C35.439 3.98704 35.6328 4.18078 35.6328 4.41976L35.6328 17.7888C35.6328 18.0278 35.439 18.2215 35.2001 18.2215L19.0328 18.2215Z" fill="white" stroke="black"/>
<path d="M0.499999 16.5455L0.5 29.9146C0.5 32.0795 2.25504 33.8345 4.41999 33.8345L20.5872 33.8345C22.7522 33.8345 24.5072 32.0795 24.5072 29.9146L24.5072 16.5455C24.5072 14.3806 22.7522 12.6255 20.5872 12.6255L4.41999 12.6255C2.25504 12.6255 0.499999 14.3806 0.499999 16.5455ZM4.41999 30.3473C4.181 30.3473 3.98726 30.1535 3.98726 29.9146L3.98726 16.5455C3.98726 16.3065 4.181 16.1128 4.41999 16.1128L20.5872 16.1128C20.8262 16.1128 21.0199 16.3065 21.0199 16.5455L21.0199 29.9146C21.0199 30.1535 20.8262 30.3473 20.5872 30.3473L4.41999 30.3473Z" fill="white" stroke="black"/>
<path d="M25.3727 26.4946L25.3727 29.9146C25.3727 32.0795 27.1278 33.8345 29.2927 33.8345L35.2 33.8345C37.3649 33.8345 39.12 32.0795 39.12 29.9146L39.12 26.4946C39.12 24.3296 37.3649 22.5746 35.2 22.5746L29.2927 22.5746C27.1278 22.5746 25.3727 24.3296 25.3727 26.4946ZM29.2927 30.3473C29.0537 30.3473 28.86 30.1535 28.86 29.9146L28.86 26.4946C28.86 26.2556 29.0537 26.0618 29.2927 26.0618L35.2 26.0618C35.439 26.0618 35.6327 26.2556 35.6327 26.4946L35.6327 29.9146C35.6327 30.1535 35.439 30.3473 35.2 30.3473L29.2927 30.3473Z" fill="#63D23A" stroke="black"/>
</svg>
