<svg width="40" height="35" viewBox="0 0 40 35" fill="none" xmlns="http://www.w3.org/2000/svg">
<path d="M15.1129 4.41977L15.1129 17.7888C15.1129 19.9538 16.8679 21.7088 19.0328 21.7088L35.2001 21.7088C37.365 21.7088 39.1201 19.9538 39.1201 17.7888L39.12 4.41976C39.12 2.25482 37.365 0.499776 35.2001 0.499776L19.0328 0.499777C16.8679 0.499777 15.1129 2.25481 15.1129 4.41977ZM19.0328 18.2215C18.7939 18.2215 18.6001 18.0278 18.6001 17.7888L18.6001 4.41977C18.6001 4.18078 18.7939 3.98704 19.0328 3.98704L35.2001 3.98704C35.439 3.98704 35.6328 4.18078 35.6328 4.41976L35.6328 17.7888C35.6328 18.0278 35.439 18.2215 35.2001 18.2215L19.0328 18.2215Z" fill="white" stroke="black"/>
<path d="M0.499999 16.5455L0.5 29.9146C0.5 32.0795 2.25504 33.8345 4.41999 33.8345L20.5872 33.8345C22.7522 33.8345 24.5072 32.0795 24.5072 29.9146L24.5072 16.5455C24.5072 14.3806 22.7522 12.6255 20.5872 12.6255L4.41999 12.6255C2.25504 12.6255 0.499999 14.3806 0.499999 16.5455ZM4.41999 30.3473C4.181 30.3473 3.98726 30.1535 3.98726 29.9146L3.98726 16.5455C3.98726 16.3065 4.181 16.1128 4.41999 16.1128L20.5872 16.1128C20.8262 16.1128 21.0199 16.3065 21.0199 16.5455L21.0199 29.9146C21.0199 30.1535 20.8262 30.3473 20.5872 30.3473L4.41999 30.3473Z" fill="white" stroke="black"/>
<path d="M25.3727 26.4946L25.3727 29.9146C25.3727 32.0795 27.1278 33.8345 29.2927 33.8345L35.2 33.8345C37.3649 33.8345 39.12 32.0795 39.12 29.9146L39.12 26.4946C39.12 24.3296 37.3649 22.5746 35.2 22.5746L29.2927 22.5746C27.1278 22.5746 25.3727 24.3296 25.3727 26.4946ZM29.2927 30.3473C29.0537 30.3473 28.86 30.1535 28.86 29.9146L28.86 26.4946C28.86 26.2556 29.0537 26.0618 29.2927 26.0618L35.2 26.0618C35.439 26.0618 35.6327 26.2556 35.6327 26.4946L35.6327 29.9146C35.6327 30.1535 35.439 30.3473 35.2 30.3473L29.2927 30.3473Z" fill="#63D23A" stroke="black"/>
</svg>
